<svg width="50" height="50" fill="none" xmlns="http://www.w3.org/2000/svg"><g clip-path="url(#clip0)"><path d="M7.01 7.66c-.022.02-.045.039-.066.06a1.702 1.702 0 00-.126.14C2.594 12.34 0 18.373 0 25c0 13.785 11.215 25 25.001 25 6.625-.001 12.655-2.592 17.132-6.813.052-.04.101-.083.148-.13.024-.025.046-.05.068-.076C47.063 38.43 50 32.052 50 24.999 50 11.215 38.786.001 25 .001 17.944 0 11.56 2.94 7.01 7.66zM3.42 25c0-5.138 1.806-9.861 4.815-13.571l30.336 30.336a21.479 21.479 0 01-13.57 4.815C13.1 46.58 3.42 36.899 3.42 25zm43.16 0a21.493 21.493 0 01-5.53 14.408L10.593 8.95A21.495 21.495 0 0125 3.42C36.9 3.42 46.58 13.1 46.58 25z" fill="#fff"/></g><defs><clipPath id="clip0"><path fill="#fff" d="M0 0h50v50H0z"/></clipPath></defs></svg>