<svg width="68" height="68" fill="none" xmlns="http://www.w3.org/2000/svg"><circle cx="32" cy="34" r="27" stroke="#AEAEAE" stroke-width="4"/><circle cx="32" cy="34" r="6.5" stroke="#AEAEAE" stroke-width="5"/><path d="M65.7421 49.41a7.2802 7.2802 0 00-7.283 7.2744 5.8757 5.8757 0 01-5.88 5.8703H41.313a30.1886 30.1886 0 0019.2765-36.8578 30.1876 30.1876 0 00-7.6687-13.045A30.1462 30.1462 0 001.4609 34a30.131 30.131 0 0029.2296 30.1514l21.8886-.003a7.471 7.471 0 007.4738-7.464 5.6926 5.6926 0 015.6892-5.6898.7935.7935 0 00.5669-.2284.7926.7926 0 00.1745-.8695.7926.7926 0 00-.7414-.4867zm-54.3248 4.8078a28.5228 28.5228 0 01-3.5159-36.0126 28.5226 28.5226 0 1123.7034 44.3863 28.4255 28.4255 0 01-20.1875-8.3741v.0004z" fill="#606060"/><path d="M31.6054 8.0352C17.3074 8.0352 5.6751 19.6828 5.6751 34s11.6323 25.9648 25.9303 25.9648c14.2981 0 25.9305-11.6476 25.9305-25.9648S45.9035 8.0352 31.6054 8.0352zm0 50.3359C18.1862 58.3711 7.2689 47.4384 7.2689 34c0-13.4384 10.9171-24.371 24.3365-24.371 13.4194 0 24.3367 10.9326 24.3367 24.371 0 13.4384-10.9173 24.3711-24.3367 24.3711z" fill="#606060"/><path d="M19.5534 14.6902a22.7794 22.7794 0 00-9.8581 13.196.797.797 0 001.1593.9079.7971.7971 0 00.376-.4802 21.1889 21.1889 0 019.1707-12.2741.7967.7967 0 00-.2466-1.4517.7973.7973 0 00-.6013.1021zM22.7524 14.6851a.796.796 0 00.3225-.0685 20.906 20.906 0 011.2606-.5108.7975.7975 0 00.5245-.7162.7978.7978 0 00-.4636-.7571.7972.7972 0 00-.6111-.0225 22.7574 22.7574 0 00-1.3564.5495.7966.7966 0 00-.1788 1.3482.7971.7971 0 00.5023.1774zM31.6055 29.211a4.7498 4.7498 0 00-3.3827 1.4031 4.798 4.798 0 000 6.7718 4.7797 4.7797 0 005.2138 1.0384 4.7801 4.7801 0 001.5517-1.0384 4.7982 4.7982 0 000-6.7718 4.7493 4.7493 0 00-3.3828-1.4031zm2.255 7.0488a3.1855 3.1855 0 01-3.4757.6923 3.1855 3.1855 0 01-1.0344-.6923 3.2026 3.2026 0 010-4.5196 3.1855 3.1855 0 013.4757-.6923c.387.1605.7385.3958 1.0344.6923a3.2026 3.2026 0 010 4.5196z" fill="#606060"/><path d="M34.7808 47.8789a4.45 4.45 0 00-3.1493-1.3063 4.4503 4.4503 0 00-3.1492 1.3063 4.467 4.467 0 000 6.3041 4.45 4.45 0 003.1492 1.3063 4.45 4.45 0 003.1493-1.3063 4.4675 4.4675 0 000-6.3041zm-1.1277 5.1778a2.8563 2.8563 0 01-2.0216.8388 2.8562 2.8562 0 01-2.0215-.8388 2.8706 2.8706 0 010-4.0517 2.8539 2.8539 0 01.9272-.6207 2.8544 2.8544 0 012.1887 0 2.856 2.856 0 01.9272.6207 2.8711 2.8711 0 010 4.0517zM51.7638 30.8741a4.4487 4.4487 0 00-6.2986 0 4.467 4.467 0 000 6.3041 4.449 4.449 0 004.8541.9668 4.4474 4.4474 0 001.4445-.9668 4.467 4.467 0 000-6.3041zm-1.1277 5.178a2.8557 2.8557 0 01-3.1159.6208 2.8572 2.8572 0 01-.9273-.6208 2.8713 2.8713 0 010-4.0519 2.855 2.855 0 012.0216-.8387 2.8543 2.8543 0 012.0215.8387 2.8719 2.8719 0 01.0001 4.0519zM31.5792 21.4273a4.4212 4.4212 0 003.1494-1.3062 4.4672 4.4672 0 000-6.3041 4.45 4.45 0 00-3.1492-1.3063 4.4504 4.4504 0 00-1.7048.3395 4.4511 4.4511 0 00-1.4445.9668 4.467 4.467 0 000 6.3041 4.4204 4.4204 0 003.1491 1.3062zm-2.0214-6.484a2.8563 2.8563 0 012.0216-.8388 2.8562 2.8562 0 012.0215.8388 2.8709 2.8709 0 010 4.0517 2.8555 2.8555 0 01-4.0431 0 2.8712 2.8712 0 010-4.0517zM14.5961 29.5156a4.4224 4.4224 0 00-3.149 1.3062 4.467 4.467 0 000 6.3041 4.4485 4.4485 0 003.1493 1.3064 4.4487 4.4487 0 003.1493-1.3064 4.467 4.467 0 000-6.3041 4.4225 4.4225 0 00-3.1496-1.3062zm2.0215 6.4842a2.8543 2.8543 0 01-3.1159.6207 2.856 2.856 0 01-.9272-.6207 2.8714 2.8714 0 010-4.0519 2.8563 2.8563 0 013.1159-.6207c.3469.1439.662.3549.9272.6207a2.8713 2.8713 0 01.0004 4.0519h-.0004z" fill="#AEAEAE"/><path d="M31.6054 24.1225a9.7941 9.7941 0 00-6.976 2.8934 9.898 9.898 0 000 13.9682 9.8562 9.8562 0 0013.952 0 9.898 9.898 0 000-13.9682 9.795 9.795 0 00-3.1979-2.1462 9.7959 9.7959 0 00-3.7781-.7472zm5.8484 15.7353a8.263 8.263 0 01-5.8483 2.426 8.2617 8.2617 0 01-5.8483-2.426 8.3007 8.3007 0 010-11.7156 8.264 8.264 0 015.8483-2.426 8.2617 8.2617 0 015.8483 2.426 8.3016 8.3016 0 010 11.7156z" fill="#606060"/></svg>
