<svg width="250" height="25" fill="none" xmlns="http://www.w3.org/2000/svg"><path d="M23.295 10.227h-8.522V1.705C14.773.764 14.009 0 13.068 0h-1.136c-.941 0-1.705.764-1.705 1.705v8.522H1.705c-.941 0-1.705.764-1.705 1.705v1.136c0 .941.764 1.705 1.705 1.705h8.522v8.522c0 .941.764 1.705 1.705 1.705h1.136c.941 0 1.705-.764 1.705-1.705v-8.522h8.522c.941 0 1.705-.764 1.705-1.705v-1.136c0-.941-.764-1.705-1.705-1.705z" fill="#fff"/><g clip-path="url(#clip0)"><path d="M83.742 21.262c-.314 0-.628-.12-.867-.36l-7.515-7.515a1.226 1.226 0 111.735-1.735l6.647 6.648L97.905 4.137a1.226 1.226 0 111.735 1.735l-15.03 15.03a1.224 1.224 0 01-.868.36z" fill="#fff"/></g><g clip-path="url(#clip1)"><path d="M153.505 3.83l-.033.03a.971.971 0 00-.063.07A12.458 12.458 0 00150 12.5c0 6.893 5.607 12.5 12.5 12.5 3.313 0 6.328-1.296 8.566-3.406a.702.702 0 00.108-.103A12.466 12.466 0 00175 12.5C175 5.608 169.393.001 162.5.001a12.46 12.46 0 00-8.995 3.83zm-1.795 8.67c0-2.569.903-4.93 2.407-6.785l15.168 15.168a10.738 10.738 0 01-6.785 2.408c-5.95 0-10.79-4.841-10.79-10.79zm21.58 0a10.745 10.745 0 01-2.765 7.204L155.297 4.476A10.745 10.745 0 01162.5 1.71c5.95 0 10.79 4.84 10.79 10.79z" fill="#fff"/></g><g clip-path="url(#clip2)"><path d="M245.473 0h-15.946a1.078 1.078 0 00-1.081 1.081V23.92a1.08 1.08 0 001.9.705l7.154-8.305 7.154 8.305a1.083 1.083 0 001.707-.088 1.08 1.08 0 00.193-.617V1.08A1.08 1.08 0 00245.473 0z" fill="#fff"/></g><defs><clipPath id="clip0"><path fill="#fff" transform="translate(75)" d="M0 0h25v25H0z"/></clipPath><clipPath id="clip1"><path fill="#fff" transform="translate(150)" d="M0 0h25v25H0z"/></clipPath><clipPath id="clip2"><path fill="#fff" transform="translate(225)" d="M0 0h25v25H0z"/></clipPath></defs></svg>