<?xml version="1.0" standalone="no"?>
<!DOCTYPE svg PUBLIC "-//W3C//DTD SVG 20010904//EN"
 "http://www.w3.org/TR/2001/REC-SVG-20010904/DTD/svg10.dtd">
<svg version="1.0" xmlns="http://www.w3.org/2000/svg"
 width="220.000000pt" height="220.000000pt" viewBox="0 0 220.000000 220.000000"
 preserveAspectRatio="xMidYMid meet">
<metadata>
Created by potrace 1.11, written by Peter Selinger 2001-2013
</metadata>
<g transform="translate(0.000000,220.000000) scale(0.100000,-0.100000)"
fill="#000000" stroke="none">
<path d="M1170 1964 c-162 -43 -283 -181 -315 -359 -7 -38 -14 -58 -14 -44 -2
43 -59 144 -105 187 -191 176 -485 124 -598 -106 -31 -62 -33 -74 -32 -162 0
-107 15 -151 77 -232 l37 -48 -44 -43 c-74 -74 -78 -97 -74 -449 l3 -303 28
-48 c32 -55 92 -102 148 -117 25 -7 235 -10 592 -8 l554 3 49 30 c59 37 110
109 119 170 l7 44 188 -126 c209 -139 219 -142 276 -82 l29 30 0 429 0 429
-29 30 c-57 60 -67 57 -276 -82 l-188 -126 -7 45 c-3 25 -21 66 -41 95 l-35
52 23 15 c49 33 107 103 137 164 68 140 57 308 -28 431 -109 159 -298 230
-481 181z m246 -139 c64 -28 123 -86 155 -151 20 -40 24 -64 24 -134 0 -75 -3
-91 -29 -138 -126 -228 -438 -228 -554 -1 -28 54 -34 76 -34 131 0 89 24 157
78 217 93 103 233 133 360 76z m-830 -123 c50 -26 99 -77 118 -124 20 -46 21
-148 2 -192 -19 -47 -73 -104 -120 -129 -57 -30 -165 -30 -221 0 -51 27 -100
78 -119 125 -20 46 -21 148 -2 192 27 65 92 123 166 147 40 13 133 3 176 -19z
m314 -362 c11 -22 34 -55 51 -75 l31 -35 -112 0 -112 0 22 33 c32 49 51 96 63
159 l11 57 13 -50 c7 -27 22 -67 33 -89z"/>
</g>
</svg>
