<?xml version="1.0" standalone="no"?>
<!DOCTYPE svg PUBLIC "-//W3C//DTD SVG 20010904//EN"
 "http://www.w3.org/TR/2001/REC-SVG-20010904/DTD/svg10.dtd">
<svg version="1.0" xmlns="http://www.w3.org/2000/svg"
 width="220.000000pt" height="220.000000pt" viewBox="0 0 220.000000 220.000000"
 preserveAspectRatio="xMidYMid meet">
<metadata>
Created by potrace 1.11, written by Peter Selinger 2001-2013
</metadata>
<g transform="translate(0.000000,220.000000) scale(0.100000,-0.100000)"
fill="#000000" stroke="none">
<path d="M1138 1830 c-71 -27 -113 -56 -163 -113 -47 -54 -83 -133 -88 -192
-2 -34 -17 -50 -17 -20 0 27 -41 98 -79 138 -192 203 -536 73 -547 -206 -4
-96 11 -136 91 -243 6 -9 0 -22 -24 -44 -66 -64 -71 -86 -71 -364 0 -168 4
-262 12 -290 16 -53 81 -118 135 -134 31 -9 162 -12 505 -12 513 1 507 0 575
68 31 31 68 116 57 133 -13 21 18 3 167 -97 133 -89 163 -105 185 -100 31 8
70 49 76 79 3 18 2 634 -1 689 -1 23 -50 75 -77 82 -16 5 -61 -20 -179 -98
-87 -58 -162 -103 -167 -100 -4 3 -8 14 -8 25 0 25 -26 77 -53 107 -11 12 -16
22 -11 22 14 0 87 69 113 108 59 84 78 214 47 315 -31 103 -119 199 -221 242
-59 25 -197 28 -257 5z m192 -93 c0 2 18 -6 40 -17 202 -103 205 -383 7 -484
-186 -94 -403 56 -384 265 13 149 158 263 300 238 20 -3 37 -5 37 -2z m-671
-126 c144 -74 154 -279 19 -369 -36 -23 -52 -27 -117 -27 -87 0 -126 19 -175
87 -33 46 -45 134 -26 192 19 60 83 118 149 136 39 10 109 1 150 -19z m268
-306 c14 -27 34 -60 45 -72 l21 -23 -34 -1 c-50 -1 -132 -1 -149 0 -10 1 -11
4 -4 9 20 12 62 100 69 144 7 41 8 42 18 18 6 -14 21 -47 34 -75z"/>
</g>
</svg>
