<svg width="154" height="69" viewBox="0 0 154 69" fill="none" xmlns="http://www.w3.org/2000/svg">
<line x1="2" y1="1" x2="152" y2="1" stroke="#303030" stroke-width="2"/>
<line x1="2" y1="49" x2="52" y2="49" stroke="#303030" stroke-width="2"/>
<line x1="102" y1="49" x2="152" y2="49" stroke="#303030" stroke-width="2"/>
<line x1="153" x2="153" y2="50" stroke="#303030" stroke-width="2"/>
<line x1="1" x2="1" y2="50" stroke="#303030" stroke-width="2"/>
<path d="M93.8125 51.125L87.25 55.5C87.25 54.1722 86.6462 52.9975 85.7122 52.1947C87.9358 50.8548 89.4375 48.4409 89.4375 45.6563C89.4375 41.4278 86.0097 38 81.7813 38C77.5528 38 74.125 41.4278 74.125 45.6563C74.125 47.8011 75.012 49.7348 76.4339 51.125H72.422C73.4698 49.9623 74.125 48.4388 74.125 46.75C74.125 43.1253 71.1872 40.1875 67.5625 40.1875C63.9378 40.1875 61 43.1253 61 46.75C61 48.7275 61.8936 50.4797 63.2772 51.6828C61.9264 52.4277 61 53.8484 61 55.5V64.25C61 66.6661 62.9589 68.625 65.375 68.625H82.875C85.2911 68.625 87.25 66.6661 87.25 64.25L93.8125 68.625C95.0211 68.625 96 67.6461 96 66.4375V53.3125C96 52.1039 95.0211 51.125 93.8125 51.125ZM67.5625 51.125C65.1464 51.125 63.1875 49.1661 63.1875 46.75C63.1875 44.3339 65.1464 42.375 67.5625 42.375C69.9786 42.375 71.9375 44.3339 71.9375 46.75C71.9375 49.1661 69.9786 51.125 67.5625 51.125ZM81.7813 51.137C78.7538 51.137 76.3005 48.6826 76.3005 45.6563C76.3005 42.6288 78.7549 40.1755 81.7813 40.1755C84.8076 40.1755 87.262 42.6288 87.262 45.6563C87.262 48.6838 84.8087 51.137 81.7813 51.137Z" fill="#303030"/>
<path d="M28.54 25.2C28.54 26.1333 28.3 26.9533 27.82 27.66C27.34 28.3533 26.66 28.9 25.78 29.3C24.9 29.7 23.88 29.9133 22.72 29.94C22.72 30.34 22.74 30.64 22.78 30.84C22.82 31.0267 22.8933 31.16 23 31.24C23.12 31.3067 23.3 31.34 23.54 31.34C23.9133 31.34 24.1867 31.32 24.36 31.28L24.46 31.42L24.28 32.66C23.9467 32.66 23.4867 32.6467 22.9 32.62L21.38 32.6C20.9267 32.6 19.9933 32.66 18.58 32.78L18.72 31.52C19.2933 31.4 19.6733 31.2333 19.86 31.02C20.06 30.8067 20.1667 30.4467 20.18 29.94H19.62C18.0067 29.94 16.74 29.5733 15.82 28.84C14.9 28.0933 14.44 27.0733 14.44 25.78C14.44 24.86 14.6733 24.0533 15.14 23.36C15.62 22.6533 16.2933 22.1 17.16 21.7C18.04 21.3 19.0533 21.08 20.2 21.04V20.88C20.2 20.4667 20.1467 20.1867 20.04 20.04C19.9467 19.8933 19.76 19.82 19.48 19.82C19.28 19.82 19.0467 19.8333 18.78 19.86L18.68 19.68L18.82 18.54L21.56 18.56C21.9333 18.56 22.8667 18.5133 24.36 18.42L24.26 19.72C23.74 19.8 23.3933 19.9133 23.22 20.06C23.06 20.1933 22.9733 20.4467 22.96 20.82C22.96 20.9133 22.9533 20.9867 22.94 21.04H23.38C24.98 21.04 26.24 21.4133 27.16 22.16C28.08 22.8933 28.54 23.9067 28.54 25.2ZM23.12 28.46C24.0133 28.46 24.6933 28.2333 25.16 27.78C25.64 27.3133 25.88 26.64 25.88 25.76C25.88 24.76 25.6133 23.9733 25.08 23.4C24.56 22.8267 23.8267 22.5333 22.88 22.52C22.8133 24.76 22.7667 26.74 22.74 28.46H23.12ZM17.1 25.22C17.1 26.2467 17.3667 27.0467 17.9 27.62C18.4333 28.18 19.18 28.46 20.14 28.46H20.18L20.2 22.54H19.86C18.98 22.54 18.3 22.7667 17.82 23.22C17.34 23.6733 17.1 24.34 17.1 25.22ZM42.0205 30.96L41.8805 32.04C41.7205 32.04 41.4071 32.0333 40.9405 32.02C40.4738 32.0067 39.9605 32 39.4005 32L37.0205 32.02L37.1605 30.9C37.6138 30.8867 37.9205 30.7867 38.0805 30.6C38.2405 30.4133 38.3205 30.06 38.3205 29.54L38.3405 25.84C37.1938 27 35.8605 28.4467 34.3405 30.18C34.3538 30.46 34.4071 30.6467 34.5005 30.74C34.5938 30.8333 34.7471 30.88 34.9605 30.88C35.1071 30.88 35.2338 30.8733 35.3405 30.86C35.4471 30.8467 35.5138 30.84 35.5405 30.84L35.6405 30.96L35.4805 32.04C35.3205 32.04 35.0271 32.0333 34.6005 32.02C34.1738 32.0067 33.7605 32 33.3605 32C32.9071 32 32.3938 32.0133 31.8205 32.04C31.2605 32.0667 30.8871 32.0933 30.7005 32.12L30.8205 31.02C31.3005 30.9267 31.6138 30.8 31.7605 30.64C31.9205 30.4667 32.0071 30.16 32.0205 29.72V23.92C32.0205 23.6 31.9805 23.3867 31.9005 23.28C31.8205 23.16 31.6605 23.1 31.4205 23.1C31.3138 23.1 31.2138 23.1067 31.1205 23.12C31.0271 23.1333 30.9605 23.14 30.9205 23.14L30.8205 22.96L30.9605 21.98L32.9605 22C33.3205 22 33.8005 21.9867 34.4005 21.96C35.0005 21.9333 35.3938 21.9133 35.5805 21.9L35.4805 23.04C35.0805 23.0933 34.8271 23.1867 34.7205 23.32C34.6138 23.44 34.5471 23.6867 34.5205 24.06C34.4405 25.2467 34.3871 26.6133 34.3605 28.16C35.7871 26.6933 37.1138 25.24 38.3405 23.8C38.3271 23.5333 38.2805 23.3533 38.2005 23.26C38.1205 23.1533 37.9671 23.1 37.7405 23.1C37.6338 23.1 37.5271 23.1067 37.4205 23.12C37.3271 23.1333 37.2671 23.14 37.2405 23.14L37.1405 22.96L37.2605 21.98L39.4805 22C39.7871 22 40.2338 21.9867 40.8205 21.96C41.4071 21.9333 41.7938 21.9133 41.9805 21.9L41.8805 23.02C41.4805 23.0733 41.2138 23.1533 41.0805 23.26C40.9605 23.3667 40.8871 23.5733 40.8605 23.88C40.7405 25.8533 40.6805 27.8333 40.6805 29.82C40.6805 30.22 40.7271 30.4933 40.8205 30.64C40.9138 30.7867 41.0871 30.86 41.3405 30.86C41.4738 30.86 41.5938 30.8533 41.7005 30.84C41.8071 30.8267 41.8805 30.82 41.9205 30.82L42.0205 30.96ZM54.3977 30.96L54.2577 32.04C53.4577 32.0133 52.6243 32 51.7577 32H49.4177L49.5577 30.92C50.011 30.8533 50.311 30.7467 50.4577 30.6C50.6177 30.4533 50.6977 30.1733 50.6977 29.76V24.3C50.6977 24.0067 50.651 23.8133 50.5577 23.72C50.4643 23.6267 50.2777 23.58 49.9977 23.58H49.0177L48.6177 26.36C48.4043 27.8 48.1643 28.9067 47.8977 29.68C47.6443 30.44 47.3177 31.0133 46.9177 31.4C46.5177 31.7867 45.9577 32.1 45.2377 32.34C44.9577 32.1133 44.691 31.8267 44.4377 31.48C44.1843 31.1333 43.9843 30.78 43.8377 30.42L44.0177 30.08C44.6177 29.9333 45.0843 29.72 45.4177 29.44C45.751 29.16 46.0177 28.7533 46.2177 28.22C46.431 27.6733 46.6443 26.88 46.8577 25.84L47.0377 24.46C47.0777 24.3 47.0977 24.16 47.0977 24.04C47.0977 23.7467 46.9577 23.54 46.6777 23.42C46.3977 23.3 45.9243 23.24 45.2577 23.24L45.1577 23.06L45.2977 22H51.9377C52.9243 22 53.731 21.9667 54.3577 21.9L54.2777 23.06C53.8643 23.1133 53.591 23.1933 53.4577 23.3C53.3377 23.4067 53.2643 23.6 53.2377 23.88C53.1043 25.5867 53.0377 27.5667 53.0377 29.82C53.0377 30.2467 53.0777 30.5333 53.1577 30.68C53.2377 30.8133 53.3977 30.88 53.6377 30.88C53.9977 30.88 54.2243 30.8667 54.3177 30.84L54.3977 30.96ZM61.8225 32.16C61.5292 32.16 61.0892 32.1333 60.5025 32.08C59.9158 32.0267 59.4758 32 59.1825 32C58.5692 32 57.7692 32.0467 56.7825 32.14L56.9025 30.98C57.3558 30.9 57.6625 30.78 57.8225 30.62C57.9825 30.4467 58.0625 30.16 58.0625 29.76L58.0825 23.92C58.0825 23.6 58.0425 23.3867 57.9625 23.28C57.8825 23.16 57.7292 23.1 57.5025 23.1L56.9625 23.14L56.8625 22.96L57.0025 21.98C57.3092 21.9933 57.7558 22 58.3425 22C59.4225 22 60.6092 21.9667 61.9025 21.9L61.8025 23.04C61.3225 23.1067 61.0025 23.2 60.8425 23.32C60.6825 23.4267 60.5958 23.64 60.5825 23.96L60.4825 26.08H62.1425C63.3558 26.08 64.2892 26.3267 64.9425 26.82C65.6092 27.3133 65.9425 28.0267 65.9425 28.96C65.9425 29.5867 65.7692 30.1467 65.4225 30.64C65.0758 31.12 64.5892 31.4933 63.9625 31.76C63.3358 32.0267 62.6225 32.16 61.8225 32.16ZM61.7225 30.64C62.2292 30.64 62.6225 30.5133 62.9025 30.26C63.1825 30.0067 63.3225 29.6467 63.3225 29.18C63.3225 28.6733 63.1892 28.2933 62.9225 28.04C62.6692 27.7733 62.2625 27.6067 61.7025 27.54L60.4225 27.64L60.3825 29.78C60.3825 30.0733 60.4892 30.2933 60.7025 30.44C60.9158 30.5733 61.2558 30.64 61.7225 30.64ZM73.5155 32.22C72.4221 28.8333 71.6288 26.56 71.1355 25.4H70.9755C70.9488 25.88 70.9021 26.6733 70.8355 27.78C70.7688 28.8867 70.7221 29.7533 70.6955 30.38C70.6955 30.5533 70.7355 30.68 70.8155 30.76C70.9088 30.84 71.0488 30.88 71.2355 30.88H71.7555L71.8555 30.96L71.6955 32.06C71.5355 32.06 71.2421 32.0467 70.8155 32.02C70.3888 32.0067 69.9955 32 69.6355 32C69.3555 32 69.0288 32.0133 68.6555 32.04C68.2955 32.08 68.0555 32.1067 67.9355 32.12L68.0355 30.98C68.3555 30.9533 68.5888 30.86 68.7355 30.7C68.8955 30.5267 68.9888 30.2533 69.0155 29.88C69.1088 29.1733 69.2355 28.0333 69.3955 26.46C69.5688 24.8867 69.6555 24 69.6555 23.8C69.6555 23.52 69.5821 23.34 69.4355 23.26C69.2888 23.1667 68.9621 23.1 68.4555 23.06L68.3555 22.94L68.5155 21.9C68.6888 21.9133 68.9888 21.9333 69.4155 21.96C69.8555 21.9733 70.2755 21.98 70.6755 21.98C71.0888 21.98 71.4821 21.9733 71.8555 21.96C72.2421 21.9467 72.5021 21.9333 72.6355 21.92C73.0088 23.24 73.3821 24.4933 73.7555 25.68C74.1421 26.8533 74.3955 27.6067 74.5155 27.94H74.6755C74.7955 27.6067 75.0555 26.8533 75.4555 25.68C75.8555 24.5067 76.2621 23.2733 76.6755 21.98C76.8488 21.9667 77.0088 21.9667 77.1555 21.98C77.3155 21.98 77.4555 21.98 77.5755 21.98C77.7221 21.9933 77.9621 22 78.2955 22C78.5621 22 78.7621 21.9933 78.8955 21.98C79.2555 21.9667 79.5888 21.9533 79.8955 21.94C80.2155 21.9133 80.4288 21.8933 80.5355 21.88L80.6155 21.94L80.4955 23.02C80.0421 23.0467 79.7355 23.12 79.5755 23.24C79.4155 23.3467 79.3355 23.5467 79.3355 23.84C79.3355 24.2133 79.3755 25.0267 79.4555 26.28C79.5488 27.52 79.6355 28.5867 79.7155 29.48C79.7821 30.0267 79.8688 30.4 79.9755 30.6C80.0821 30.7867 80.2621 30.88 80.5155 30.88L80.9755 30.86L81.0555 30.96L80.9155 32.04C80.7955 32.04 80.5688 32.0333 80.2355 32.02C79.9155 32.0067 79.5688 32 79.1955 32C78.8088 32.0133 78.3488 32.0267 77.8155 32.04C77.2955 32.0667 76.9088 32.0933 76.6555 32.12L76.7755 30.98C77.1088 30.94 77.3421 30.8667 77.4755 30.76C77.6221 30.64 77.6955 30.4533 77.6955 30.2C77.6955 29.9467 77.6555 29.1933 77.5755 27.94C77.4955 26.6867 77.4421 25.84 77.4155 25.4H77.2555C77.0155 25.9867 76.6688 26.9067 76.2155 28.16C75.7755 29.4 75.3288 30.7067 74.8755 32.08L73.5155 32.22ZM88.977 32.24C87.7637 32.24 86.7104 31.9867 85.817 31.48C84.9237 30.9733 84.237 30.2467 83.757 29.3C83.277 28.3533 83.037 27.2333 83.037 25.94C83.037 24.5267 83.3237 23.2933 83.897 22.24C84.4704 21.1867 85.2837 20.3733 86.337 19.8C87.4037 19.2133 88.637 18.92 90.037 18.92C90.5304 18.92 91.057 18.96 91.617 19.04C92.1904 19.1067 92.677 19.18 93.077 19.26C93.477 19.34 93.7304 19.3933 93.837 19.42L93.957 19.68C93.9304 19.7733 93.8837 19.9867 93.817 20.32C93.7504 20.6533 93.677 21.1 93.597 21.66C93.517 22.22 93.457 22.8133 93.417 23.44L91.517 23.56C91.517 23.5067 91.5237 23.3867 91.537 23.2C91.5504 23 91.557 22.7733 91.557 22.52C91.557 21.9333 91.377 21.5067 91.017 21.24C90.657 20.96 90.0904 20.82 89.317 20.82C88.2637 20.82 87.457 21.1933 86.897 21.94C86.3504 22.6867 86.077 23.7867 86.077 25.24C86.077 26.88 86.3704 28.1533 86.957 29.06C87.557 29.9667 88.3904 30.42 89.457 30.42C90.1904 30.42 90.7637 30.2 91.177 29.76C91.5904 29.3067 91.877 28.5933 92.037 27.62L93.957 27.5C93.917 27.7267 93.8437 28.2267 93.737 29C93.6437 29.7733 93.5837 30.5067 93.557 31.2L93.357 31.44C93.357 31.4533 93.1304 31.5333 92.677 31.68C92.237 31.8133 91.6904 31.94 91.037 32.06C90.397 32.18 89.7104 32.24 88.977 32.24ZM101.025 32.18C99.5312 32.18 98.3579 31.7467 97.5045 30.88C96.6645 30 96.2445 28.7867 96.2445 27.24C96.2445 26.1333 96.4645 25.1733 96.9045 24.36C97.3445 23.5333 97.9712 22.9 98.7845 22.46C99.6112 22.02 100.571 21.8 101.665 21.8C103.185 21.8 104.365 22.2333 105.205 23.1C106.045 23.9533 106.465 25.1533 106.465 26.7C106.465 27.8067 106.238 28.7733 105.785 29.6C105.345 30.4267 104.711 31.0667 103.885 31.52C103.071 31.96 102.118 32.18 101.025 32.18ZM101.425 30.68C102.145 30.68 102.698 30.4133 103.085 29.88C103.471 29.3467 103.665 28.5733 103.665 27.56C103.665 26.2 103.451 25.18 103.025 24.5C102.611 23.82 102.011 23.48 101.225 23.48C100.518 23.48 99.9779 23.74 99.6045 24.26C99.2312 24.78 99.0445 25.5533 99.0445 26.58C99.0445 27.9533 99.2445 28.98 99.6445 29.66C100.058 30.34 100.651 30.68 101.425 30.68ZM111.29 32C110.904 32 110.43 32.02 109.87 32.06C109.324 32.1 108.964 32.1267 108.79 32.14L108.91 31C109.377 30.92 109.69 30.8 109.85 30.64C110.01 30.4667 110.09 30.18 110.09 29.78L110.11 23.84C110.11 23.5733 110.07 23.3867 109.99 23.28C109.91 23.16 109.777 23.1 109.59 23.1L109.03 23.12L108.89 22.98L109.07 21.94L111.45 21.98C111.89 21.9667 112.384 21.9533 112.93 21.94C113.49 21.9133 113.884 21.8933 114.11 21.88C115.257 21.88 116.13 22.0933 116.73 22.52C117.344 22.9333 117.65 23.5333 117.65 24.32C117.65 24.7467 117.55 25.1267 117.35 25.46C117.15 25.7933 116.917 26.0667 116.65 26.28C116.384 26.48 116.144 26.62 115.93 26.7C116.437 26.8067 116.937 27.0533 117.43 27.44C117.937 27.8133 118.19 28.3333 118.19 29C118.19 29.9733 117.797 30.7467 117.01 31.32C116.224 31.88 115.157 32.16 113.81 32.16L113.19 32.12C112.337 32.04 111.704 32 111.29 32ZM112.55 26.16C112.684 26.1733 112.937 26.2067 113.31 26.26C113.684 26.3 113.937 26.32 114.07 26.32C114.07 26.3467 114.164 26.3 114.35 26.18C114.55 26.0467 114.724 25.8667 114.87 25.64C115.03 25.4 115.11 25.1067 115.11 24.76C115.11 24.28 114.937 23.9267 114.59 23.7C114.244 23.4733 113.704 23.36 112.97 23.36C112.864 23.36 112.79 23.38 112.75 23.42C112.71 23.46 112.684 23.5333 112.67 23.64C112.59 24.7067 112.55 25.5467 112.55 26.16ZM112.45 29.8C112.45 30.1067 112.564 30.3267 112.79 30.46C113.017 30.5933 113.397 30.66 113.93 30.66C114.437 30.66 114.83 30.5333 115.11 30.28C115.39 30.0267 115.53 29.6733 115.53 29.22C115.53 28.8467 115.397 28.5333 115.13 28.28C114.877 28.0133 114.497 27.8267 113.99 27.72H112.51L112.45 29.8ZM120.75 31C121.203 30.9467 121.51 30.8267 121.67 30.64C121.83 30.44 121.91 30.1067 121.91 29.64L121.93 23.94C121.93 23.6067 121.897 23.3867 121.83 23.28C121.763 23.16 121.623 23.1 121.41 23.1L120.93 23.12L120.81 22.96L120.95 21.94C121.163 21.94 121.57 21.9467 122.17 21.96C122.783 21.9733 123.437 21.98 124.13 21.98C126.49 21.98 128.17 21.92 129.17 21.8L129.31 21.98C129.27 22.1533 129.203 22.5333 129.11 23.12C129.03 23.6933 128.97 24.2867 128.93 24.9L127.27 25C127.27 24.96 127.277 24.88 127.29 24.76C127.303 24.6267 127.31 24.5 127.31 24.38C127.31 24.0867 127.263 23.88 127.17 23.76C127.077 23.64 126.897 23.56 126.63 23.52C126.363 23.4667 125.923 23.44 125.31 23.44C124.95 23.44 124.723 23.4667 124.63 23.52C124.55 23.5733 124.503 23.7067 124.49 23.92L124.39 26.18H125.87C126.11 26.18 126.45 26.1667 126.89 26.14C127.33 26.1 127.623 26.0733 127.77 26.06L127.93 26.24L127.69 27.68C127.543 27.68 127.263 27.6733 126.85 27.66C126.45 27.6467 126.023 27.64 125.57 27.64C125.21 27.64 124.797 27.6733 124.33 27.74C124.303 28.38 124.29 29.0333 124.29 29.7C124.29 29.9933 124.31 30.2 124.35 30.32C124.39 30.44 124.477 30.5267 124.61 30.58C124.743 30.62 124.97 30.64 125.29 30.64C125.957 30.64 126.443 30.6 126.75 30.52C127.057 30.4267 127.277 30.2667 127.41 30.04C127.543 29.8 127.65 29.4133 127.73 28.88L129.25 28.76L129.41 28.94C129.37 29.1 129.297 29.4733 129.19 30.06C129.097 30.6467 129.017 31.2667 128.95 31.92L128.77 32.1C128.437 32.0867 127.71 32.0667 126.59 32.04C125.483 32.0133 124.483 32 123.59 32C122.963 32 122.357 32.02 121.77 32.06C121.183 32.1133 120.803 32.1467 120.63 32.16L120.75 31ZM133.185 30.96C133.691 30.92 134.058 30.86 134.285 30.78C134.511 30.6867 134.658 30.5467 134.725 30.36C134.805 30.16 134.845 29.8467 134.845 29.42V23.38C134.311 23.3933 133.925 23.4467 133.685 23.54C133.458 23.6333 133.291 23.8133 133.185 24.08C133.078 24.3467 132.985 24.8 132.905 25.44L131.385 25.54C131.398 25.3133 131.425 24.8333 131.465 24.1C131.518 23.3533 131.551 22.6533 131.565 22L131.765 21.8L133.465 21.98H138.625L140.365 21.8L140.565 22C140.578 22.68 140.598 23.3733 140.625 24.08C140.665 24.7867 140.691 25.24 140.705 25.44L139.185 25.54C139.105 24.8467 139.011 24.36 138.905 24.08C138.811 23.8 138.658 23.62 138.445 23.54C138.231 23.4467 137.871 23.3933 137.365 23.38C137.258 24.9 137.205 27.04 137.205 29.8C137.205 30.1867 137.271 30.46 137.405 30.62C137.538 30.78 137.771 30.86 138.105 30.86C138.318 30.86 138.505 30.8533 138.665 30.84C138.825 30.8267 138.925 30.82 138.965 30.82L139.025 30.9L138.885 32.08C138.658 32.0667 138.245 32.0467 137.645 32.02C137.045 32.0067 136.471 32 135.925 32C135.538 32 135.018 32.0133 134.365 32.04C133.711 32.08 133.278 32.1067 133.065 32.12L133.185 30.96Z" fill="#303030"/>
</svg>
